<svg xmlns="http://www.w3.org/2000/svg" width="121" height="67" viewBox="0 0 121 67" fill="none"><g clip-path="url(#a)"><path d="M44.45 15.24c3.9 0 3.79-.03 7.6.04.36 0 .89.47 1.08.85 2.24 4.58 4.43 9.18 6.64 13.77l5.24 10.8c.8 1.67 1.36 3.39 1.09 5.28-.22 1.54-1.14 2.48-2.7 2.66-1.08.12-2.18.22-3.27.22H14.4c-1.05 0-2.1-.1-3.15-.21-1.58-.18-2.48-1.06-2.74-2.63-.3-1.84.24-3.52 1.02-5.15l13.65-28.3c1.68-3.5 3.34-7.01 5.06-10.49.22-.43.75-1 1.14-1 5.71-.07 8.2-.05 14.1-.05-.4.9-.78 1.8-1.2 2.68L33.53 22l-5.28 11.03c-.5 1.02-.99 2.04-1.5 3.05-.43.85-.29 1.28.76 1.28 4.39-.02 15.91-.03 20.3 0 1.1 0 1.13-.5.75-1.3-1.28-2.7-2.58-5.4-3.85-8.1a3.1 3.1 0 0 1-.34-1.26c-.03-3.57-.02-7.13-.01-10.7 0-.2.05-.39.1-.74l-.01-.01Z" fill="#C33D40"></path><path d="M115.13 49.43c-4.42 0-8.63.03-12.85-.03-.36 0-.87-.49-1.03-.87-4.48-10.06-16.57-34.06-17.46-35.96-.15-.34-.56-.79-.87-.8-4.81-.04-9.63-.03-14.63-.03 5.56 12.6 12.58 25.06 18.16 37.7h-4.7c-2.6 0-5.2-.02-7.79 0-.68.02-1.09-.15-1.38-.83C66.48 34.7 58.8 20.84 52.7 6.95c-1.28-2.92.28-5.53 3.46-5.9 1.24-.14 2.5-.22 3.76-.22 5.83-.02 11.67-.04 17.5 0 3.09.02 6.17.13 9.24.26 3.17.13 5.75 1.34 7.18 4.33 2.18 4.58 16.4 32.9 20.6 42.45.22.47.41.95.67 1.57ZM89.87 54.94a5.08 5.08 0 0 0-2.65-.7c-1.49 0-2.72.5-3.67 1.5a5.72 5.72 0 0 0-1.42 4.11c0 .93.2 1.8.6 2.63.4.84 1.01 1.5 1.8 2a5.3 5.3 0 0 0 5.25.08c.8-.46 1.43-1.1 1.86-1.96.43-.85.65-1.8.65-2.87a6.2 6.2 0 0 0-.62-2.82 4.6 4.6 0 0 0-1.8-1.97Zm-.18 7.8a3.23 3.23 0 0 1-2.48 1.07c-1.01 0-1.82-.35-2.47-1.05a4.07 4.07 0 0 1-.98-2.89c0-1.52.34-2.6 1.02-3.26.69-.65 1.5-.97 2.45-.97a3.28 3.28 0 0 1 3.03 1.94c.27.6.42 1.32.42 2.15 0 1.3-.33 2.3-.98 3.02h-.01ZM80.13 55.03a3.21 3.21 0 0 0-1.35-.51 9.5 9.5 0 0 0-1.58-.1h-4.06v10.6h1.83v-4.11h2.35c1.45 0 2.53-.3 3.15-.97.59-.65.88-1.43.88-2.35a3.3 3.3 0 0 0-.33-1.49 2.7 2.7 0 0 0-.89-1.07Zm-.65 2.6c0 .53-.16.91-.46 1.18-.3.26-.83.42-1.68.42h-2.37V56.1h2.34c.6 0 1 .03 1.19.08.29.08.52.25.7.5.19.25.28.56.28.94v.01ZM95.68 60.38h5.6v-1.67h-5.6v-2.6h5.98v-1.7h-7.8v10.61h8.03v-1.68h-6.21v-2.96ZM111.79 54.42v1.68h3.33v8.92h1.83V56.1h3.35v-1.68h-8.51ZM28.62 54.42H20.1v1.68h3.33v8.92h1.83V56.1h3.35v-1.68ZM55.53 59.16a5.87 5.87 0 0 0-2.57-.42H50.8v-4.32h-1.83v10.6h4.1c1.47 0 2.55-.3 3.16-.96a3.33 3.33 0 0 0 .5-3.72c-.24-.5-.65-.9-1.2-1.18Zm-4.74 1.22h1.55c.87 0 1.46.04 1.8.12.31.07.55.22.73.46.18.23.28.51.28.88 0 .44-.13.8-.4 1.11-.1.13-.3.24-.59.32-.3.08-.68.12-1.16.12h-2.2v-3.02ZM39.85 61.79c0 .84-.08 1.07-.18 1.23-.1.15-.25.23-.49.23a2.89 2.89 0 0 1-.7-.1l-.33-.13v1.71l.18.05c.43.12.8.18 1.13.18.53 0 1-.15 1.36-.47.37-.31.6-.75.7-1.29.11-.51.16-1.06.16-2.12V56.1h3.41v8.92h1.83v-10.6h-7.07v7.37-.01ZM63.2 65.02h1.82V56.1h4.3v8.92h1.84v-10.6H63.2v10.6ZM31.69 54.42l-4.08 10.6h1.95l1.11-2.82h3.9l1.18 2.82h2.05l-4.34-10.6H31.7Zm-.46 6.2 1-2.88c.13-.36.25-.73.35-1.1l.46 1.27.94 2.71h-2.75ZM13.01 60.38h5.6v-1.67h-5.6v-2.6H19v-1.7h-7.8v10.61h8.04v-1.68H13v-2.96ZM8.85 54.42H2.21v1.45c0 1.86-.1 3.4-.3 4.63-.2 1.15-.47 2-.82 2.57H.2v3.88h1.68v-2.2h6.2v2.2h1.69v-3.88h-.91v-8.65Zm-5.1 5.24c.16-1.5.24-2.68.24-3.56v-.27h3.04v7.24H2.98c.38-.93.63-2.07.77-3.4ZM107.43 59.58c.16-.1.3-.2.44-.33.14-.14.29-.36.44-.64a11 11 0 0 0 .48-1.07c.27-.68.5-1.07.67-1.24.14-.15.38-.24.78-.24h.26l.28.02h.24V54.5l-.17-.06a.31.31 0 0 0-.07-.01h-.06l-.16-.01h-.6c-.44 0-.85.1-1.23.31-.36.2-.65.46-.86.77-.2.3-.43.78-.71 1.44-.2.45-.37.8-.52 1.08a2.5 2.5 0 0 1-.38.55c-.15.15-.43.25-.88.28v-4.42h-1.83v10.6h1.83v-4.72c.33.04.6.16.8.35.3.26.67.75 1.13 1.51l1.76 2.86h2.24l-2.32-3.74a4.91 4.91 0 0 0-1.56-1.7Z" fill="#565F76"></path></g><defs><clipPath id="a"><path fill="#fff" transform="translate(.2 .8)" d="M0 0h120.1v66.14H0z"></path></clipPath></defs></svg>